<mxfile host="65bd71144e">
    <diagram id="gkMwvEXVFvD15q9P0unt" name="Page-1">
        <mxGraphModel dx="1311" dy="1854" grid="1" gridSize="10" guides="1" tooltips="1" connect="1" arrows="1" fold="1" page="1" pageScale="1" pageWidth="850" pageHeight="1100" math="0" shadow="0">
            <root>
                <mxCell id="0"/>
                <mxCell id="1" parent="0"/>
                <mxCell id="MoJfXVSKLvA6zEH9-j-g-2" value="" style="triangle;whiteSpace=wrap;html=1;rotation=-225;" parent="1" vertex="1">
                    <mxGeometry x="160" y="200" width="160" height="160" as="geometry"/>
                </mxCell>
                <mxCell id="rUtFMbiMm77uvTc8waQB-4" value="&lt;font style=&quot;font-size: 32px&quot;&gt;&lt;b&gt;R2&lt;/b&gt;&lt;br&gt;&lt;/font&gt;" style="text;html=1;strokeColor=none;fillColor=none;align=center;verticalAlign=middle;whiteSpace=wrap;rounded=0;" parent="1" vertex="1">
                    <mxGeometry x="120" y="450" width="80" height="30" as="geometry"/>
                </mxCell>
                <mxCell id="xENhbxOerLXffAawdGfM-7" value="&lt;font style=&quot;font-size: 24px&quot;&gt;GigabitEthernet2&lt;/font&gt;" style="text;html=1;strokeColor=none;fillColor=none;align=center;verticalAlign=middle;whiteSpace=wrap;rounded=0;fontSize=12;fontStyle=1" parent="1" vertex="1">
                    <mxGeometry x="-120" y="335" width="200" height="20" as="geometry"/>
                </mxCell>
                <mxCell id="xENhbxOerLXffAawdGfM-9" value="&lt;font style=&quot;font-size: 24px&quot;&gt;192.0.2.2/30&lt;br&gt;5254.00ee.6401&lt;br&gt;&lt;/font&gt;" style="text;html=1;strokeColor=none;fillColor=none;align=center;verticalAlign=middle;whiteSpace=wrap;rounded=0;fontSize=12;" parent="1" vertex="1">
                    <mxGeometry x="-90" y="360" width="170" height="60" as="geometry"/>
                </mxCell>
                <mxCell id="rUtFMbiMm77uvTc8waQB-1" value="" style="sketch=0;points=[[0.5,0,0],[1,0.5,0],[0.5,1,0],[0,0.5,0],[0.145,0.145,0],[0.8555,0.145,0],[0.855,0.8555,0],[0.145,0.855,0]];verticalLabelPosition=bottom;html=1;verticalAlign=top;aspect=fixed;align=center;pointerEvents=1;shape=mxgraph.cisco19.rect;prIcon=router;fillColor=#FAFAFA;strokeColor=#005073;" parent="1" vertex="1">
                    <mxGeometry x="80" y="280" width="160" height="160" as="geometry"/>
                </mxCell>
                <mxCell id="MoJfXVSKLvA6zEH9-j-g-5" value="" style="shadow=0;dashed=0;html=1;strokeColor=none;fillColor=#4495D1;labelPosition=center;verticalLabelPosition=bottom;verticalAlign=top;align=center;outlineConnect=0;shape=mxgraph.veeam.magnifying_glass;pointerEvents=1;" parent="1" vertex="1">
                    <mxGeometry x="210" y="278" width="30.2" height="29.76" as="geometry"/>
                </mxCell>
                <mxCell id="MoJfXVSKLvA6zEH9-j-g-6" value="" style="rounded=0;whiteSpace=wrap;html=1;fillColor=#dae8fc;strokeColor=#6c8ebf;" parent="1" vertex="1">
                    <mxGeometry x="240" y="40" width="530" height="240" as="geometry"/>
                </mxCell>
                <mxCell id="MoJfXVSKLvA6zEH9-j-g-7" value="&lt;b&gt;&lt;font style=&quot;font-size: 24px;&quot;&gt;Data Plane&lt;/font&gt;&lt;/b&gt;" style="text;html=1;strokeColor=none;fillColor=none;align=center;verticalAlign=middle;whiteSpace=wrap;rounded=0;" parent="1" vertex="1">
                    <mxGeometry x="240.2" y="40" width="135" height="30" as="geometry"/>
                </mxCell>
                <mxCell id="MoJfXVSKLvA6zEH9-j-g-9" value="GigabitEthernet2" style="text;html=1;strokeColor=#666666;fillColor=#f5f5f5;align=center;verticalAlign=middle;whiteSpace=wrap;rounded=0;fontSize=12;fontColor=#333333;rotation=-90;" parent="1" vertex="1">
                    <mxGeometry x="200" y="168" width="100" height="20" as="geometry"/>
                </mxCell>
                <mxCell id="MoJfXVSKLvA6zEH9-j-g-12" value="GigabitEthernet3" style="text;html=1;strokeColor=#666666;fillColor=#f5f5f5;align=center;verticalAlign=middle;whiteSpace=wrap;rounded=0;fontSize=12;fontColor=#333333;rotation=90;" parent="1" vertex="1">
                    <mxGeometry x="710" y="168" width="100" height="20" as="geometry"/>
                </mxCell>
                <mxCell id="lg1bF2bMBCInLzIEMenJ-1" value="&lt;font style=&quot;font-size: 24px&quot;&gt;GigabitEthernet3&lt;/font&gt;" style="text;html=1;strokeColor=none;fillColor=none;align=center;verticalAlign=middle;whiteSpace=wrap;rounded=0;fontSize=12;fontStyle=1" parent="1" vertex="1">
                    <mxGeometry x="240.2" y="335" width="200" height="20" as="geometry"/>
                </mxCell>
                <mxCell id="lg1bF2bMBCInLzIEMenJ-2" value="&lt;font style=&quot;font-size: 24px&quot;&gt;192.0.2.129/25&lt;br&gt;5254.0097.ec02&lt;br&gt;&lt;/font&gt;" style="text;html=1;strokeColor=none;fillColor=none;align=center;verticalAlign=middle;whiteSpace=wrap;rounded=0;fontSize=12;" parent="1" vertex="1">
                    <mxGeometry x="249.2" y="360" width="170" height="60" as="geometry"/>
                </mxCell>
                <mxCell id="y73i1uDtCIl-mZOma8KQ-1" value="" style="rounded=0;whiteSpace=wrap;html=1;fillColor=#ffe6cc;strokeColor=#d79b00;" parent="1" vertex="1">
                    <mxGeometry x="240" y="-200" width="530" height="240" as="geometry"/>
                </mxCell>
                <mxCell id="y73i1uDtCIl-mZOma8KQ-2" value="&lt;b&gt;&lt;font style=&quot;font-size: 24px;&quot;&gt;Control Plane&lt;/font&gt;&lt;/b&gt;" style="text;html=1;strokeColor=none;fillColor=none;align=center;verticalAlign=middle;whiteSpace=wrap;rounded=0;" parent="1" vertex="1">
                    <mxGeometry x="240" y="-200" width="160" height="30" as="geometry"/>
                </mxCell>
                <mxCell id="y73i1uDtCIl-mZOma8KQ-4" value="Inband Interface" style="text;html=1;strokeColor=#666666;fillColor=#f5f5f5;align=center;verticalAlign=middle;whiteSpace=wrap;rounded=0;fontSize=12;fontColor=#333333;rotation=0;" parent="1" vertex="1">
                    <mxGeometry x="430" y="20" width="100" height="20" as="geometry"/>
                </mxCell>
                <mxCell id="Cx1l_bT8B-DmLu8TlAHO-1" value="&lt;b&gt;ICMP Echo Request&lt;/b&gt;" style="rounded=0;whiteSpace=wrap;html=1;align=left;fillColor=#dae8fc;strokeColor=#6c8ebf;rotation=0;" parent="1" vertex="1">
                    <mxGeometry x="260" y="-40" width="120" height="28" as="geometry"/>
                </mxCell>
                <mxCell id="y73i1uDtCIl-mZOma8KQ-5" value="&lt;span style=&quot;&quot;&gt;Hmmm, sure enough, we don't know the MAC address for 192.0.2.130. Let's figure it out with an ARP Request!&lt;/span&gt;" style="shape=callout;whiteSpace=wrap;html=1;perimeter=calloutPerimeter;flipV=1;position2=0.42;size=30;position=0.34;" parent="1" vertex="1">
                    <mxGeometry x="250" y="-165" width="150" height="105" as="geometry"/>
                </mxCell>
                <mxCell id="Cx1l_bT8B-DmLu8TlAHO-4" value="" style="html=1;shadow=0;dashed=0;align=center;verticalAlign=middle;shape=mxgraph.arrows2.arrow;dy=0.6;dx=23;notch=0;fillColor=#f8cecc;strokeColor=#b85450;rotation=-150;" parent="1" vertex="1">
                    <mxGeometry x="360" y="-10" width="76" height="30" as="geometry"/>
                </mxCell>
                <mxCell id="JwWad0q-cd8oJ2A8N-bI-1" value="&lt;div style=&quot;&quot;&gt;&lt;b style=&quot;background-color: initial;&quot;&gt;ARP Request&lt;/b&gt;&lt;span style=&quot;background-color: initial;&quot;&gt;: Sender 192.0.2.129,&amp;nbsp; &amp;nbsp; &amp;nbsp; &amp;nbsp; Target 192.0.2.130&lt;/span&gt;&lt;/div&gt;" style="rounded=0;whiteSpace=wrap;html=1;fillColor=#e1d5e7;strokeColor=#9673a6;align=left;" parent="1" vertex="1">
                    <mxGeometry x="410" y="-110" width="350" height="22" as="geometry"/>
                </mxCell>
                <mxCell id="JwWad0q-cd8oJ2A8N-bI-2" value="&lt;b&gt;&amp;nbsp; Ethernet:&lt;/b&gt; Source 5254.0097.ec02, Destination ffff.ffff.ffff" style="rounded=0;whiteSpace=wrap;html=1;fillColor=#b1ddf0;strokeColor=#10739e;" parent="1" vertex="1">
                    <mxGeometry x="410" y="-130" width="350" height="20" as="geometry"/>
                </mxCell>
                <mxCell id="JwWad0q-cd8oJ2A8N-bI-3" value="" style="html=1;shadow=0;dashed=0;align=center;verticalAlign=middle;shape=mxgraph.arrows2.arrow;dy=0.6;dx=23;notch=0;fillColor=#647687;strokeColor=#314354;rotation=-225;fontColor=#ffffff;" parent="1" vertex="1">
                    <mxGeometry x="482.93" y="-52.93" width="160" height="30" as="geometry"/>
                </mxCell>
                <mxCell id="JwWad0q-cd8oJ2A8N-bI-4" value="" style="html=1;shadow=0;dashed=0;align=center;verticalAlign=middle;shape=mxgraph.arrows2.arrow;dy=0.6;dx=23;notch=0;fillColor=#647687;strokeColor=#314354;rotation=30;fontColor=#ffffff;" parent="1" vertex="1">
                    <mxGeometry x="490" y="98.23" width="280" height="30" as="geometry"/>
                </mxCell>
                <mxCell id="JwWad0q-cd8oJ2A8N-bI-5" value="" style="shape=image;html=1;verticalAlign=top;verticalLabelPosition=bottom;labelBackgroundColor=#ffffff;imageAspect=0;aspect=fixed;image=https://cdn3.iconfinder.com/data/icons/geosm-e-commerce/48/logs-2-128.png" parent="1" vertex="1">
                    <mxGeometry x="249.2" y="-12.000000000000007" width="49" height="49" as="geometry"/>
                </mxCell>
            </root>
        </mxGraphModel>
    </diagram>
</mxfile>